<?xml version="1.0" standalone="no"?>
<!DOCTYPE svg PUBLIC "-//W3C//DTD SVG 20010904//EN"
 "http://www.w3.org/TR/2001/REC-SVG-20010904/DTD/svg10.dtd">
<svg version="1.0" xmlns="http://www.w3.org/2000/svg"
 width="1019.000000pt" height="1022.000000pt" viewBox="0 0 1019.000000 1022.000000"
 preserveAspectRatio="xMidYMid meet">
<metadata>
</metadata>
<g transform="translate(0.000000,1022.000000) scale(0.100000,-0.100000)"
fill="black" stroke="none">
<path d="M4745 10214 c-22 -2 -92 -9 -155 -15 -1028 -95 -2024 -524 -2830
-1219 -176 -152 -445 -426 -597 -610 -588 -714 -972 -1576 -1112 -2500 -69
-457 -69 -1063 0 -1520 140 -924 524 -1786 1112 -2500 105 -126 144 -169 321
-348 256 -260 483 -447 781 -647 704 -471 1458 -742 2330 -837 163 -18 837
-18 1000 0 1084 119 2026 525 2835 1222 176 152 445 426 597 610 589 715 979
1592 1113 2507 68 470 68 1056 -1 1513 -140 924 -524 1786 -1112 2500 -105
126 -144 169 -321 348 -256 260 -483 447 -781 647 -690 461 -1422 729 -2275
831 -127 15 -795 28 -905 18z m1251 -1306 c-4 -51 -11 -156 -16 -233 -20 -298
-30 -562 -22 -615 l8 -55 175 170 c169 165 399 382 488 461 24 21 101 94 170
161 69 67 127 118 129 114 3 -10 -193 -845 -214 -910 -6 -19 53 -7 122 25 29
13 57 24 63 24 5 0 33 12 63 26 149 73 363 170 478 217 47 19 111 47 142 61
31 14 59 26 63 26 3 0 -16 -33 -43 -72 -27 -40 -77 -120 -111 -178 -98 -165
-156 -257 -227 -367 l-67 -101 -96 -4 c-107 -3 -71 11 -406 -163 -175 -91
-241 -124 -270 -135 -21 -8 -22 -4 -39 203 -26 315 -30 337 -69 369 -57 49
-95 38 -262 -76 -38 -27 -101 -74 -140 -105 -38 -31 -88 -69 -110 -86 -22 -16
-68 -53 -101 -81 -34 -29 -83 -64 -108 -79 -46 -27 -47 -27 -68 -9 -11 11 -43
53 -71 94 -28 41 -70 100 -95 130 -195 243 -223 267 -282 250 -34 -10 -110
-58 -110 -69 0 -3 -14 -21 -32 -40 -48 -51 -161 -210 -203 -285 -29 -52 -42
-66 -60 -66 -22 0 -199 132 -234 173 -11 14 -11 37 2 149 9 73 23 196 32 273
24 205 23 200 49 135 13 -30 31 -71 41 -90 16 -32 167 -291 202 -349 l15 -23
18 30 c10 16 33 63 50 103 18 41 38 88 46 104 7 17 34 87 59 158 24 70 59 160
76 200 33 76 53 132 96 262 l26 80 23 -75 c20 -67 50 -151 146 -415 16 -44 38
-107 49 -140 22 -63 44 -105 57 -105 4 0 31 39 60 88 69 114 63 103 123 212
29 52 71 127 94 165 23 39 52 90 64 115 11 25 48 95 81 155 32 61 78 149 101
198 23 48 44 87 47 87 2 0 1 -42 -2 -92z m-2436 -1085 c52 -58 129 -143 170
-189 41 -45 104 -115 140 -155 36 -39 100 -107 142 -151 42 -43 86 -90 97
-105 26 -32 26 -19 1 54 -11 32 -26 85 -34 118 -9 33 -27 98 -42 145 -32 103
-53 189 -54 213 0 14 23 -2 83 -55 123 -111 197 -172 242 -201 22 -14 63 -44
90 -66 51 -41 183 -137 283 -203 30 -21 63 -38 73 -38 10 0 36 23 58 53 22 28
57 75 79 103 22 28 70 109 107 180 37 71 73 135 80 142 10 11 21 2 61 -45 27
-32 63 -76 79 -97 103 -135 163 -208 244 -298 35 -39 50 -48 77 -48 36 0 53
12 274 195 67 55 137 112 156 126 19 15 61 52 95 83 33 31 64 56 70 56 5 0 9
-12 9 -27 0 -27 26 -406 37 -545 3 -38 8 -68 12 -68 3 0 15 7 26 16 11 8 48
23 83 34 35 11 185 80 335 154 150 74 293 143 320 154 58 25 57 27 23 -114
-13 -54 -34 -151 -46 -215 -24 -131 -21 -148 31 -169 32 -14 106 -6 224 21
111 26 400 90 470 104 279 56 397 77 402 71 3 -3 1 -11 -5 -18 -30 -38 -332
-616 -332 -638 0 -5 15 -16 34 -24 57 -24 210 -179 275 -280 69 -107 88 -147
136 -280 19 -55 37 -101 39 -103 2 -2 39 -10 82 -18 44 -7 115 -20 159 -29
120 -23 300 -54 393 -67 45 -6 84 -15 87 -19 2 -4 -17 -24 -42 -46 -55 -46
-215 -188 -259 -230 -17 -16 -53 -47 -80 -69 -27 -22 -86 -79 -131 -127 l-83
-88 1 -118 c1 -64 4 -129 8 -144 10 -44 83 -89 503 -310 87 -46 158 -85 158
-88 0 -4 -44 -20 -97 -37 -98 -31 -183 -64 -278 -108 -27 -13 -97 -44 -155
-70 -134 -60 -149 -67 -245 -118 -74 -39 -80 -45 -83 -76 -6 -56 6 -78 60
-117 48 -34 118 -95 233 -200 l40 -37 -60 -29 c-33 -15 -67 -28 -75 -28 -22 0
-80 -61 -80 -85 0 -11 6 -29 14 -40 7 -11 18 -36 25 -56 6 -19 33 -64 59 -98
83 -111 123 -165 147 -201 12 -19 40 -52 61 -74 l39 -39 -50 6 c-56 7 -381 23
-637 31 l-167 6 -56 -74 c-31 -41 -76 -97 -100 -124 -49 -55 -53 -68 -29 -113
8 -16 39 -101 69 -187 29 -86 85 -246 124 -356 39 -109 71 -202 71 -207 0 -5
-18 2 -40 16 -21 14 -65 38 -97 53 -32 16 -71 36 -88 45 -61 32 -292 136 -360
162 -38 14 -79 30 -90 35 -181 79 -250 97 -272 68 -12 -15 -33 -311 -33 -455
0 -98 -8 -123 -27 -88 -5 8 -56 65 -114 127 -183 196 -199 215 -199 226 0 19
31 106 44 121 17 21 67 161 73 203 3 25 1 38 -7 38 -6 0 -82 -19 -168 -41 -86
-23 -174 -46 -195 -51 -44 -11 -74 -37 -83 -73 -8 -33 23 -69 81 -95 22 -10
53 -29 70 -43 l29 -24 -47 -309 c-26 -170 -52 -345 -58 -389 -7 -44 -13 -81
-14 -83 -2 -2 -27 23 -56 54 -30 31 -61 64 -70 73 -8 9 -65 70 -125 136 -60
66 -113 125 -119 131 -20 21 -124 139 -142 161 -10 12 -54 41 -98 63 -68 36
-87 41 -126 38 -93 -9 -173 -76 -330 -278 -54 -69 -109 -138 -122 -155 -13
-16 -63 -82 -112 -145 -48 -63 -91 -119 -95 -123 -4 -5 -15 27 -25 70 -17 76
-47 183 -98 348 -102 330 -111 352 -171 421 -73 85 -210 82 -330 -6 -49 -36
-154 -105 -331 -218 -71 -46 -157 -103 -190 -127 -51 -37 -112 -75 -121 -75
-1 0 2 12 7 28 49 146 219 829 219 882 0 28 -34 42 -109 43 -64 0 -71 -2 -286
-108 -286 -140 -458 -217 -451 -202 3 7 28 68 56 137 28 69 71 172 95 230 24
58 61 157 83 220 22 63 54 146 71 184 l31 68 -30 47 c-16 25 -47 78 -69 116
-64 115 -126 214 -132 215 -4 0 -13 -14 -20 -32 -12 -31 -31 -57 -128 -181
-25 -32 -54 -70 -63 -84 -9 -14 -44 -57 -78 -95 -34 -38 -60 -71 -57 -74 2 -3
78 -11 168 -19 252 -23 273 -28 208 -55 -17 -7 -36 -18 -43 -25 -6 -7 -68 -43
-136 -80 -69 -37 -204 -112 -300 -165 -300 -167 -314 -175 -342 -187 l-27 -11
20 46 c11 25 25 52 30 58 5 7 20 38 33 70 13 33 57 142 98 244 109 270 132
343 130 418 -2 72 -17 99 -77 133 -59 34 -150 35 -528 4 -186 -16 -340 -26
-342 -23 -3 3 132 142 300 309 l305 304 0 45 c0 71 -24 104 -129 181 -49 35
-365 196 -478 244 -51 22 -90 42 -85 46 7 8 91 42 242 99 112 42 155 63 215
105 97 69 118 115 72 158 -13 12 -70 49 -126 82 -57 33 -124 73 -149 89 -111
69 -375 215 -462 256 -52 24 -99 48 -104 52 -6 4 15 8 45 8 57 0 294 18 594
45 187 16 335 39 368 57 50 27 88 187 68 292 -14 76 -83 247 -127 316 -20 30
-71 114 -115 185 -44 72 -84 137 -89 145 -5 8 -57 96 -116 195 -58 99 -113
187 -120 196 -26 30 -14 31 24 1 20 -16 71 -51 112 -78 41 -28 89 -59 105 -71
36 -25 172 -114 313 -203 56 -36 153 -100 215 -144 137 -96 257 -156 309 -156
21 0 38 4 38 8 0 5 -18 52 -40 106 -21 53 -53 136 -71 184 -17 48 -45 116 -62
152 -26 58 -107 250 -107 255 0 5 130 -48 220 -90 52 -24 136 -59 185 -78 50
-19 132 -51 184 -71 51 -20 109 -36 128 -36 66 0 165 69 270 189 l74 85 -6 61
c-3 33 -24 150 -45 260 -21 110 -55 284 -75 388 -19 103 -38 194 -41 202 -16
41 30 4 116 -92z m4320 -353 c473 -15 610 -22 604 -31 -3 -5 -31 -16 -62 -25
-31 -9 -94 -29 -139 -44 -45 -16 -114 -36 -155 -44 -40 -8 -161 -34 -268 -56
-107 -23 -267 -57 -355 -75 -88 -18 -193 -43 -234 -54 l-73 -20 6 27 c3 15 17
94 32 176 14 83 27 153 30 157 4 7 48 6 614 -11z"/>
<path d="M5008 7263 c-24 -32 -51 -65 -60 -75 -10 -10 -18 -22 -18 -27 0 -4
-10 -20 -22 -34 -85 -97 -204 -264 -195 -273 6 -6 360 40 422 55 22 6 87 15
143 21 57 6 111 14 119 17 12 5 -4 25 -63 82 -92 89 -210 219 -236 262 -10 16
-24 29 -33 29 -8 0 -34 -26 -57 -57z"/>
<path d="M6114 6912 c-73 -63 -154 -125 -229 -173 l-80 -52 75 -14 c266 -47
510 -77 510 -61 0 15 -39 79 -74 124 -23 27 -63 85 -91 127 -27 42 -57 77 -65
77 -8 -1 -29 -13 -46 -28z"/>
<path d="M4128 6912 c-6 -15 -21 -50 -34 -77 -34 -75 -112 -343 -116 -395 -3
-40 -1 -45 17 -41 11 1 61 31 110 65 89 61 334 189 388 202 35 8 34 16 -5 39
-30 17 -88 57 -240 167 -28 20 -54 41 -57 46 -3 5 -16 11 -29 15 -18 4 -25 0
-34 -21z"/>
<path d="M7030 6669 c-58 -23 -130 -47 -160 -55 -124 -33 -169 -48 -165 -55 3
-4 49 -26 102 -49 54 -23 139 -62 190 -86 50 -24 96 -44 101 -44 6 0 42 -13
80 -30 39 -16 74 -30 77 -30 13 0 -8 89 -57 238 -28 83 -53 152 -57 152 -3 -1
-53 -19 -111 -41z"/>
<path d="M2993 6233 c3 -27 21 -98 40 -158 81 -258 97 -312 103 -352 4 -24 11
-43 16 -43 5 0 21 20 36 45 15 25 68 107 117 181 172 259 180 273 159 288 -10
7 -51 16 -93 20 -77 6 -223 31 -276 46 -16 4 -48 11 -69 15 l-39 6 6 -48z"/>
<path d="M4915 6251 c-103 -26 -169 -64 -249 -144 -199 -200 -232 -487 -84
-733 42 -70 65 -96 122 -139 110 -83 202 -115 326 -115 132 0 266 51 362 138
40 36 113 135 125 169 3 10 14 36 23 58 30 68 41 173 30 280 -15 148 -64 247
-172 352 -70 68 -146 111 -237 134 -90 23 -154 23 -246 0z"/>
<path d="M3645 5950 c-3 -5 1 -66 10 -137 13 -102 44 -439 45 -477 0 -5 30 21
68 56 37 36 90 85 117 109 28 24 59 53 71 64 11 11 51 48 88 82 41 38 66 68
63 77 -6 16 -61 48 -272 158 -148 76 -178 87 -190 68z"/>
<path d="M7598 5567 c-205 -77 -338 -306 -338 -581 0 -251 106 -456 280 -539
197 -95 409 -1 535 237 66 124 91 317 65 486 -16 99 -75 213 -149 287 -86 87
-151 116 -266 120 -59 2 -103 -1 -127 -10z"/>
<path d="M2633 5283 c-51 -2 -93 -6 -93 -9 0 -23 37 -139 61 -192 16 -36 29
-69 29 -74 0 -10 61 -171 94 -248 13 -30 29 -68 36 -85 l13 -30 7 26 c4 15 17
40 28 55 13 18 35 94 58 194 44 197 73 344 69 348 -2 2 -21 8 -42 13 -37 8
-66 8 -260 2z"/>
<path d="M4520 4942 c-95 -35 -179 -113 -217 -199 -24 -54 -23 -205 2 -253 36
-70 105 -139 172 -172 60 -29 73 -32 167 -32 126 0 187 22 269 95 86 77 123
161 114 264 -11 143 -99 246 -256 300 -58 20 -193 18 -251 -3z"/>
<path d="M3318 4793 l-38 -4 37 -72 c19 -40 46 -86 59 -103 13 -17 24 -36 24
-43 0 -21 53 -208 96 -341 4 -12 8 -11 16 5 6 11 37 49 68 85 31 36 67 79 79
97 31 45 60 80 105 125 l39 39 -59 57 c-33 31 -77 77 -98 101 -26 29 -50 46
-75 52 -35 8 -181 9 -253 2z"/>
<path d="M5450 4758 c-5 -24 -23 -83 -39 -133 -53 -162 -50 -221 14 -382 68
-170 257 -356 473 -467 127 -65 217 -91 368 -106 240 -25 487 55 638 205 81
80 113 130 148 226 32 93 39 206 13 232 -22 22 -122 54 -630 198 -77 22 -160
46 -185 54 -25 7 -74 21 -110 30 -36 9 -150 44 -255 77 -168 52 -378 108 -412
108 -7 0 -17 -19 -23 -42z"/>
<path d="M2694 4241 c-94 -132 -123 -180 -154 -251 -18 -41 -39 -90 -47 -108
-9 -18 -14 -35 -11 -37 2 -3 20 0 39 6 19 5 67 14 106 18 43 5 92 19 120 33
27 14 65 28 87 32 21 4 48 11 61 16 l23 9 -24 48 c-13 26 -46 102 -72 168 -59
146 -69 151 -128 66z"/>
<path d="M7554 4232 c-62 -22 -143 -84 -177 -135 -51 -77 -61 -221 -22 -297
84 -162 269 -230 419 -155 67 34 114 86 152 169 70 153 -18 340 -195 412 -67
28 -109 29 -177 6z"/>
<path d="M3813 3668 c-6 -7 -38 -71 -73 -143 -68 -143 -67 -140 -103 -211 -26
-49 -65 -180 -57 -187 8 -6 532 52 540 60 11 10 -167 333 -239 436 -43 59 -52
65 -68 45z"/>
<path d="M5444 3268 c13 -35 46 -114 75 -175 28 -62 51 -116 51 -119 0 -4 11
-27 25 -51 25 -42 26 -43 53 -29 15 8 52 36 82 63 30 27 115 89 188 138 73 49
135 92 137 95 2 4 -1 15 -8 24 -9 12 -45 19 -157 31 -153 15 -326 44 -412 70
-28 8 -53 15 -55 15 -1 0 8 -28 21 -62z"/>
<path d="M6670 3044 c0 -2 9 -20 20 -41 11 -21 35 -81 53 -134 28 -77 46 -111
98 -174 l63 -78 49 54 c27 30 60 77 74 104 24 47 36 66 113 179 36 53 38 74 8
85 -22 8 -478 13 -478 5z"/>
<path d="M4616 2833 c-10 -46 -36 -363 -36 -435 0 -48 4 -68 13 -68 6 0 50 12
97 26 47 15 119 34 160 44 41 9 125 32 185 50 61 18 120 35 133 39 20 6 2 21
-130 107 -84 56 -171 112 -193 125 -22 13 -76 49 -119 81 -44 32 -85 58 -92
58 -7 0 -15 -12 -18 -27z"/>
</g>
<g transform="translate(0.000000,1022.000000) scale(0.100000,-0.100000)"
fill="white" stroke="none">
<path d="M5948 8863 c-16 -32 -55 -107 -88 -168 -33 -60 -78 -146 -101 -190
-22 -44 -46 -87 -53 -95 -14 -18 -136 -236 -136 -244 0 -3 -18 -32 -40 -63
-22 -32 -40 -62 -40 -67 0 -17 -51 -76 -65 -76 -19 0 -42 35 -61 95 -9 27 -24
73 -35 100 -76 205 -116 313 -144 398 l-32 97 -28 -77 c-15 -43 -53 -143 -85
-223 -31 -80 -63 -163 -70 -185 -50 -159 -166 -407 -189 -403 -16 3 -179 275
-239 398 l-37 75 -2 -40 c-2 -22 -12 -110 -23 -195 -11 -85 -24 -188 -28 -228
l-9 -74 55 -41 c30 -23 80 -63 111 -89 31 -26 61 -46 66 -45 6 2 26 30 45 63
49 84 168 249 226 313 75 83 158 112 215 73 44 -28 234 -255 306 -364 18 -26
41 -60 54 -77 33 -45 29 -47 299 168 85 68 173 136 195 150 22 14 48 33 58 42
9 9 30 22 45 30 15 7 45 24 66 37 53 33 107 26 152 -20 l33 -33 21 -213 c11
-117 20 -235 20 -262 0 -31 4 -50 11 -50 12 0 82 35 314 156 267 140 252 134
352 134 113 0 79 -40 365 428 26 42 57 95 69 117 12 22 37 62 57 89 l35 48
-39 -20 c-21 -11 -79 -36 -129 -56 -90 -37 -251 -110 -420 -190 -49 -24 -108
-49 -130 -56 -22 -7 -44 -16 -50 -20 -12 -10 -114 -40 -133 -40 -19 0 -13 37
33 225 19 77 45 187 59 245 13 58 40 171 60 252 20 80 36 152 36 158 0 6 -29
-15 -63 -47 -35 -32 -120 -109 -188 -172 -212 -195 -358 -334 -512 -485 -143
-141 -178 -164 -191 -130 -14 36 7 629 30 842 4 34 5 62 3 62 -2 0 -16 -26
-31 -57z"/>
<path d="M3473 7868 c3 -13 17 -88 32 -168 15 -80 47 -245 71 -368 24 -122 44
-250 44 -283 0 -57 -3 -64 -46 -117 -62 -77 -167 -167 -231 -199 -61 -29 -112
-28 -188 7 -24 11 -47 20 -50 20 -12 0 -312 122 -360 146 -50 26 -144 64 -157
64 -7 0 7 -36 80 -200 11 -25 29 -67 40 -95 121 -307 143 -368 138 -380 -3
-10 -20 -15 -47 -15 -59 0 -183 62 -343 172 -75 51 -181 122 -237 158 -56 36
-179 116 -272 178 -94 62 -172 111 -174 109 -2 -2 5 -15 15 -28 10 -13 35 -53
56 -89 93 -162 145 -250 177 -300 20 -30 53 -84 74 -120 21 -36 54 -89 73
-119 19 -29 55 -103 81 -165 l46 -111 0 -125 c0 -117 -2 -128 -28 -178 -30
-58 -41 -64 -137 -80 -69 -12 -533 -56 -710 -68 -138 -9 -155 -15 -104 -39 61
-28 144 -70 204 -104 83 -46 143 -80 160 -90 8 -5 80 -49 160 -98 80 -48 158
-95 173 -103 40 -20 77 -67 77 -96 0 -33 -24 -68 -63 -93 -18 -11 -54 -36 -82
-55 -27 -20 -79 -45 -115 -57 -36 -12 -69 -25 -75 -29 -5 -4 -39 -17 -75 -30
-36 -13 -69 -27 -74 -32 -6 -4 -18 -8 -28 -8 -37 0 -16 -17 60 -50 42 -19 147
-70 232 -114 302 -155 360 -208 360 -328 0 -36 -13 -51 -302 -339 -167 -166
-294 -299 -283 -296 11 3 85 11 165 17 80 6 226 18 325 26 251 22 341 9 405
-60 40 -44 40 -137 0 -265 -17 -56 -45 -135 -62 -174 -16 -40 -59 -144 -95
-232 -35 -88 -74 -175 -85 -193 -11 -18 -18 -35 -16 -38 3 -2 36 13 74 35 38
21 98 55 134 75 36 20 83 47 105 59 22 13 76 43 120 67 162 87 301 165 333
187 l33 22 -33 5 c-18 3 -105 11 -193 18 -184 15 -188 18 -124 88 22 25 73 87
112 139 40 51 92 119 117 151 25 31 54 76 64 99 24 51 45 52 71 4 11 -21 29
-51 41 -68 12 -16 34 -54 48 -82 14 -29 46 -84 71 -122 25 -38 45 -79 45 -91
0 -11 -11 -42 -24 -68 -13 -26 -36 -85 -51 -132 -28 -83 -93 -256 -120 -315
-8 -16 -35 -84 -60 -150 -26 -66 -49 -126 -52 -133 -4 -9 1 -10 21 -2 32 12
209 96 426 203 146 72 173 82 230 85 38 2 81 -2 105 -10 39 -13 40 -14 37 -58
-4 -69 -45 -247 -143 -620 -17 -63 -39 -144 -50 -179 -10 -35 -19 -65 -19 -67
0 -2 21 12 48 31 106 78 130 95 197 135 68 41 134 84 335 216 118 78 134 84
221 84 106 0 160 -35 214 -139 29 -58 168 -499 204 -650 11 -46 22 -85 24 -87
2 -2 29 31 60 75 31 43 80 108 109 145 29 36 87 110 128 163 102 132 216 249
267 273 29 13 63 20 105 20 88 0 182 -52 263 -147 82 -95 269 -300 413 -452
l42 -45 0 31 c0 18 7 74 15 125 12 76 76 490 89 575 2 18 -7 29 -43 52 -25 16
-56 32 -68 36 -54 16 -80 96 -47 143 20 29 48 43 114 57 30 7 118 29 194 49
77 20 145 35 153 32 21 -8 16 -72 -11 -129 -13 -29 -29 -70 -36 -92 -7 -22
-21 -51 -31 -65 -10 -14 -21 -42 -24 -62 -7 -35 -4 -40 72 -120 44 -46 111
-117 149 -159 l69 -75 7 105 c27 400 29 416 46 429 8 6 27 12 40 12 29 0 149
-40 225 -74 30 -14 59 -26 62 -26 13 0 250 -103 265 -115 8 -6 42 -22 75 -35
72 -29 223 -107 248 -129 18 -15 18 -14 2 29 -9 25 -21 54 -26 65 -5 11 -20
52 -33 90 -106 304 -177 507 -192 546 l-18 46 45 53 c70 83 112 136 139 174
l25 35 130 1 c159 0 584 -17 644 -26 l44 -7 -44 59 c-25 33 -57 77 -72 100
-15 22 -37 51 -48 63 -30 32 -109 152 -109 165 0 7 -9 29 -20 51 -11 22 -20
45 -20 53 0 18 60 92 75 92 7 0 38 11 69 25 55 24 56 26 42 46 -8 12 -27 29
-43 39 -15 10 -60 47 -99 82 -39 35 -87 74 -106 86 -56 35 -77 124 -40 167 39
45 634 314 761 345 28 7 53 15 56 19 2 4 -62 42 -143 85 -305 160 -362 192
-426 238 l-66 48 0 152 0 153 104 105 c94 95 173 169 342 316 33 29 77 68 98
87 l40 34 -70 7 c-38 4 -112 16 -164 26 -52 10 -122 21 -155 25 -33 3 -82 12
-110 20 -27 8 -81 19 -120 25 -89 14 -105 19 -105 33 0 32 -83 235 -128 312
-79 138 -230 301 -309 337 -24 10 -43 26 -43 34 0 20 139 293 296 582 18 34
32 62 30 62 -3 0 -140 -27 -411 -80 -49 -10 -148 -31 -220 -48 -128 -30 -223
-50 -340 -72 -52 -10 -66 -9 -103 6 -64 25 -67 42 -37 196 14 72 35 169 47
215 11 46 18 86 15 90 -4 3 -143 -62 -309 -145 -167 -82 -333 -160 -371 -172
-37 -12 -74 -28 -81 -36 -8 -8 -21 -14 -28 -14 -20 0 -36 134 -49 395 -6 121
-14 223 -18 227 -3 4 -29 -14 -58 -40 -79 -71 -202 -173 -248 -206 -22 -16
-71 -58 -108 -92 -71 -66 -137 -104 -178 -104 -13 0 -36 10 -51 23 -32 27
-184 208 -298 357 -47 60 -89 109 -94 107 -4 -1 -37 -59 -73 -127 -36 -69 -81
-145 -100 -170 -20 -25 -58 -75 -86 -113 -49 -66 -50 -67 -86 -61 -20 4 -56
21 -79 38 -24 17 -77 55 -118 83 -41 29 -105 77 -142 106 -37 29 -89 68 -117
87 -55 37 -212 167 -234 194 -8 10 -22 21 -32 26 -15 9 -14 -2 11 -93 15 -56
34 -124 43 -152 84 -275 87 -285 66 -285 -13 0 -247 245 -424 444 -142 161
-238 266 -243 266 -2 0 -2 -10 1 -22z m1641 -565 c23 -37 214 -250 275 -307
58 -56 45 -67 -94 -81 -33 -3 -98 -12 -145 -20 -307 -51 -460 -67 -460 -46 0
6 20 42 45 80 25 38 45 71 45 74 0 3 15 20 33 39 17 19 48 55 67 81 117 158
168 217 191 217 11 0 29 -15 43 -37z m1131 -439 c34 -50 77 -111 96 -135 43
-55 69 -102 69 -124 0 -15 -9 -16 -92 -10 -122 9 -364 42 -405 56 -18 5 -55
10 -83 11 -75 0 -66 23 38 88 48 30 103 69 122 86 75 68 156 124 174 121 12
-1 43 -37 81 -93z m-2005 36 c36 -28 118 -85 182 -128 64 -42 117 -83 118 -90
0 -7 -24 -23 -52 -34 -72 -29 -319 -157 -341 -176 -37 -32 -143 -92 -164 -92
-20 0 -23 5 -23 43 0 69 70 311 124 429 14 31 26 63 26 71 0 45 55 36 130 -23z
m2942 -237 c9 -32 25 -83 37 -113 23 -64 47 -149 56 -202 6 -37 5 -38 -25 -38
-17 0 -47 8 -68 19 -20 10 -55 24 -77 31 -22 7 -76 30 -120 50 -44 21 -129 60
-190 87 -61 27 -111 55 -113 64 -3 18 58 42 165 64 40 8 81 19 90 25 33 20
178 69 203 70 23 0 28 -7 42 -57z m-4030 -397 c62 -13 154 -29 203 -35 127
-16 145 -21 145 -38 0 -19 -68 -136 -110 -188 -18 -22 -44 -60 -58 -85 -14
-25 -36 -59 -48 -75 -13 -17 -29 -41 -36 -55 -42 -77 -82 -130 -97 -130 -14 0
-22 19 -39 88 -11 48 -40 146 -63 217 -52 162 -79 262 -79 298 0 24 4 27 34
27 19 0 85 -11 148 -24z m2022 -3 c100 -25 172 -68 253 -151 119 -123 163
-240 163 -435 0 -126 -24 -205 -102 -332 -73 -121 -224 -215 -377 -237 -148
-21 -290 16 -406 104 -76 58 -97 81 -141 154 -45 75 -70 148 -85 256 -24 165
32 344 151 481 45 52 154 125 220 147 120 41 203 44 324 13z m-1356 -352 c212
-107 307 -164 310 -188 2 -17 -44 -65 -205 -212 -114 -105 -215 -191 -224
-191 -13 0 -18 27 -28 178 -7 97 -16 197 -21 222 -13 69 -23 236 -16 249 14
21 48 10 184 -58z m3984 -322 c166 -36 314 -208 352 -409 19 -98 15 -262 -8
-358 -31 -133 -127 -284 -220 -347 -98 -66 -136 -79 -231 -79 -80 0 -97 3
-158 32 -133 62 -241 210 -278 377 -17 80 -17 274 -1 356 8 37 36 112 65 170
46 92 60 111 120 160 37 32 85 65 105 75 70 34 164 42 254 23z m-4868 -295
c23 -9 20 -43 -13 -201 -58 -269 -80 -350 -106 -388 -14 -21 -25 -46 -25 -56
0 -33 -30 -20 -46 19 -9 20 -24 55 -34 77 -18 40 -97 248 -151 400 -16 44 -29
97 -29 118 l0 37 194 0 c107 0 201 -3 210 -6z m1833 -330 c109 -35 170 -77
221 -153 92 -138 74 -305 -45 -427 -92 -94 -209 -132 -351 -114 -95 12 -165
46 -227 108 -71 72 -88 112 -93 218 -7 147 37 238 151 317 91 63 240 85 344
51z m-1054 -268 c59 -61 107 -114 107 -118 0 -5 -16 -22 -35 -39 -29 -26 -96
-107 -170 -208 -42 -58 -103 -121 -116 -121 -15 0 -44 81 -90 255 -17 61 -38
122 -48 136 -30 41 -91 169 -91 191 0 19 7 19 168 16 l167 -3 108 -109z m1880
98 c40 -8 119 -30 177 -49 147 -47 295 -92 360 -109 30 -8 190 -53 355 -101
165 -48 329 -95 365 -105 129 -35 204 -63 228 -87 23 -23 24 -30 19 -106 -5
-78 -32 -170 -73 -248 -23 -44 -141 -166 -199 -204 -70 -47 -147 -81 -241
-107 -105 -29 -337 -32 -464 -6 -102 21 -342 137 -405 196 -22 20 -62 54 -88
76 -26 21 -79 78 -117 127 -144 180 -186 379 -117 560 14 36 30 91 37 122 l13
57 39 0 c22 0 71 -7 111 -16z m-2816 -489 c12 -8 29 -39 39 -68 9 -28 27 -72
39 -97 13 -25 28 -64 35 -88 8 -23 19 -47 27 -53 7 -6 13 -21 13 -34 0 -17 -9
-24 -39 -33 -21 -7 -44 -12 -51 -12 -7 0 -43 -14 -79 -31 -36 -17 -86 -33
-111 -35 -25 -1 -65 -7 -90 -13 -101 -23 -116 -13 -81 56 10 21 33 72 51 114
18 41 60 116 95 165 111 157 111 157 152 129z m4979 -69 c46 -22 65 -36 132
-99 12 -12 35 -47 50 -77 23 -47 27 -67 26 -135 -1 -67 -5 -90 -30 -140 -36
-75 -86 -125 -159 -160 -51 -24 -67 -27 -139 -23 -66 3 -92 9 -140 33 -65 33
-144 115 -163 170 -33 96 -24 209 23 292 25 44 120 124 176 148 54 23 164 19
224 -9z m-3899 -554 c36 -23 283 -454 283 -495 0 -17 -8 -19 -215 -42 -77 -9
-173 -20 -213 -25 -115 -16 -152 -13 -152 8 0 36 48 178 77 227 16 28 35 66
42 85 8 19 39 83 69 143 44 85 59 107 76 107 12 0 26 -4 33 -8z m1763 -380
c80 -17 204 -36 275 -42 140 -13 175 -26 175 -64 0 -19 -27 -41 -144 -119 -80
-53 -155 -107 -168 -119 -105 -101 -142 -110 -175 -45 -64 123 -173 381 -173
410 0 23 -4 23 210 -21z m1548 -258 c12 -8 22 -22 22 -30 0 -9 -25 -53 -55
-99 -30 -45 -68 -106 -85 -136 -18 -29 -52 -79 -76 -111 -56 -71 -79 -75 -123
-19 -17 21 -31 43 -31 47 0 5 -16 24 -34 42 -19 19 -38 48 -41 65 -9 44 -63
184 -82 213 -32 49 -24 51 239 46 187 -3 248 -7 266 -18z m-2472 -199 c58 -41
159 -109 269 -180 44 -29 107 -70 139 -91 33 -21 70 -45 83 -52 31 -18 29 -40
-4 -48 -16 -3 -73 -20 -128 -36 -55 -17 -134 -39 -175 -49 -41 -9 -126 -32
-188 -49 -62 -18 -116 -29 -120 -25 -16 16 13 495 34 549 10 25 37 19 90 -19z"/>
<path d="M7275 7449 c-3 -13 -12 -69 -20 -124 -8 -55 -19 -115 -25 -134 -5
-19 -7 -37 -5 -40 3 -2 29 3 58 12 28 8 77 20 107 26 30 5 118 23 195 40 77
16 239 50 360 75 199 42 435 107 460 128 5 4 -27 8 -70 8 -44 0 -188 4 -320 9
-132 6 -351 13 -487 16 l-247 7 -6 -23z"/>
</g>
</svg>
